<svg xmlns="http://www.w3.org/2000/svg" xmlns:xlink="http://www.w3.org/1999/xlink" width="1920" zoomAndPan="magnify" viewBox="0 0 1440 809.999993" height="1080" preserveAspectRatio="xMidYMid meet" version="1.0"><defs><clipPath id="ee1b2e48b2"><path d="M 620 293.25 L 828 293.25 L 828 501 L 620 501 Z M 620 293.25 " clip-rule="nonzero"/></clipPath></defs><rect x="-144" width="1728" fill="#ffffff" y="-80.999999" height="971.999992" fill-opacity="1"/><g clip-path="url(#ee1b2e48b2)"><path fill="#000000" d="M 804.5 316.796875 C 789.425781 301.738281 769.382812 293.457031 748.074219 293.457031 C 726.75 293.457031 706.707031 301.738281 691.628906 316.796875 C 676.546875 331.847656 668.242188 351.875 668.242188 373.171875 C 668.242188 391.683594 674.542969 409.21875 686.085938 423.386719 L 670.679688 438.773438 L 667.167969 435.269531 L 620.425781 481.9375 L 639.136719 500.621094 L 685.863281 453.953125 L 682.367188 450.449219 L 697.773438 435.0625 C 711.960938 446.601562 729.515625 452.878906 748.054688 452.878906 C 769.378906 452.878906 789.417969 444.585938 804.5 429.527344 C 835.625 398.445312 835.625 347.878906 804.5 316.796875 Z M 795.882812 420.90625 C 783.105469 433.667969 766.128906 440.6875 748.054688 440.6875 C 729.988281 440.6875 713.015625 433.660156 700.238281 420.90625 C 687.472656 408.160156 680.4375 391.207031 680.4375 373.164062 C 680.4375 355.125 687.472656 338.15625 700.242188 325.410156 C 713.007812 312.648438 729.980469 305.628906 748.058594 305.628906 C 766.125 305.628906 783.097656 312.65625 795.875 325.410156 C 822.238281 351.75 822.238281 394.59375 795.882812 420.90625 Z M 795.882812 420.90625 " fill-opacity="1" fill-rule="nonzero"/></g><path fill="#000000" d="M 748.058594 314.714844 C 732.425781 314.714844 717.738281 320.804688 706.679688 331.832031 C 705.015625 333.496094 705.015625 336.203125 706.679688 337.867188 C 708.347656 339.53125 711.058594 339.53125 712.722656 337.867188 C 722.164062 328.4375 734.714844 323.253906 748.058594 323.253906 C 761.421875 323.253906 773.960938 328.4375 783.410156 337.867188 C 784.234375 338.707031 785.332031 339.113281 786.433594 339.113281 C 787.515625 339.113281 788.613281 338.707031 789.460938 337.867188 C 791.125 336.203125 791.125 333.496094 789.460938 331.832031 C 778.394531 320.804688 763.695312 314.714844 748.058594 314.714844 Z M 748.058594 314.714844 " fill-opacity="1" fill-rule="nonzero"/><path fill="#000000" d="M 609.46875 492.898438 C 604.695312 497.648438 604.695312 505.375 609.46875 510.121094 L 610.917969 511.582031 C 615.6875 516.335938 623.410156 516.335938 628.175781 511.582031 L 634.597656 505.167969 L 615.890625 486.480469 Z M 609.46875 492.898438 " fill-opacity="1" fill-rule="nonzero"/></svg>